<?xml version="1.0" encoding="UTF-8" standalone="no"?>
<!DOCTYPE svg PUBLIC "-//W3C//DTD SVG 1.1//EN" "http://www.w3.org/Graphics/SVG/1.1/DTD/svg11.dtd">
<svg version="1.1" xmlns="http://www.w3.org/2000/svg" xmlns:xlink="http://www.w3.org/1999/xlink" preserveAspectRatio="xMidYMid meet" viewBox="0 0 640 640" width="640" height="640"><defs><path d="M801 -1C801 -1 801 -1 801 -1C801 360.2 801 560.87 801 601C801 601 801 601 801 601C319.8 601 52.47 601 -1 601C-1 601 -1 601 -1 601C-1 239.8 -1 39.13 -1 -1C-1 -1 -1 -1 -1 -1C480.2 -1 747.53 -1 801 -1Z" id="a6OeLaZVK"></path><path d="M121.36 189.49C103.6 203.08 63 206.17 42.08 195.05C35.09 191.35 23.68 175.9 16.69 160.43C-6.14 110.37 13.52 56.59 61.1 36.82C79.49 29.41 83.94 29.41 88.37 36.2C99.79 52.89 94.08 68.95 73.15 78.24C26.21 99.24 40.17 174.65 88.37 162.91C99.16 160.43 115.02 142.52 137.85 107.9C182.25 41.14 199.38 23.84 224.75 18.89C248.86 14.57 281.83 29.41 287.54 47.32C290.08 54.74 293.89 59.07 295.79 58.45C333.85 38.05 349.71 34.96 371.27 41.77C399.82 50.41 417.57 78.85 417.57 115.32C417.57 157.97 396.01 187.63 356.68 198.14C345.26 201.85 342.73 199.38 340.19 183.31C337.65 167.24 340.19 162.91 355.42 154.88C377.62 143.75 387.76 120.88 379.51 100.48C372.54 82.56 352.88 70.81 338.92 75.76C333.22 78.24 310.38 107.28 287.54 140.66C230.46 224.73 200.64 238.94 159.42 198.76C156.45 195.87 149.05 188.66 137.22 177.13C127.7 184.54 122.42 188.66 121.36 189.49ZM239.34 53.5C219.04 53.5 199.38 75.76 170.19 130.16C169.14 132.09 163.85 141.77 154.34 159.2C163.48 166.62 168.55 170.74 169.56 171.56C186.69 185.17 191.76 185.78 208.26 177.13C220.3 170.95 267.88 107.28 275.49 87.51C281.2 73.29 259.63 53.5 239.34 53.5Z" id="b1Mkq6azX6"></path><path d="M121.36 189.49C103.6 203.08 63 206.17 42.08 195.05C35.09 191.35 23.68 175.9 16.69 160.43C-6.14 110.37 13.52 56.59 61.1 36.82C79.49 29.41 83.94 29.41 88.37 36.2C99.79 52.89 94.08 68.95 73.15 78.24C26.21 99.24 40.17 174.65 88.37 162.91C99.16 160.43 115.02 142.52 137.85 107.9C182.25 41.14 199.38 23.84 224.75 18.89C248.86 14.57 281.83 29.41 287.54 47.32C290.08 54.74 293.89 59.07 295.79 58.45C333.85 38.05 349.71 34.96 371.27 41.77C399.82 50.41 417.57 78.85 417.57 115.32C417.57 157.97 396.01 187.63 356.68 198.14C345.26 201.85 342.73 199.38 340.19 183.31C337.65 167.24 340.19 162.91 355.42 154.88C377.62 143.75 387.76 120.88 379.51 100.48C372.54 82.56 352.88 70.81 338.92 75.76C333.22 78.24 310.38 107.28 287.54 140.66C230.46 224.73 200.64 238.94 159.42 198.76C156.45 195.87 149.05 188.66 137.22 177.13C127.7 184.54 122.42 188.66 121.36 189.49ZM239.34 53.5C219.04 53.5 199.38 75.76 170.19 130.16C169.14 132.09 163.85 141.77 154.34 159.2C163.48 166.62 168.55 170.74 169.56 171.56C186.69 185.17 191.76 185.78 208.26 177.13C220.3 170.95 267.88 107.28 275.49 87.51C281.2 73.29 259.63 53.5 239.34 53.5Z" id="fgkTPNEmn"></path></defs><g><g><g><use xlink:href="#a6OeLaZVK" opacity="1" fill="#000000" fill-opacity="0"></use><g><use xlink:href="#a6OeLaZVK" opacity="1" fill-opacity="0" stroke="#000000" stroke-width="1" stroke-opacity="0"></use></g></g><g><use xlink:href="#b1Mkq6azX6" opacity="1" fill="#000000" fill-opacity="1"></use><g><use xlink:href="#b1Mkq6azX6" opacity="1" fill-opacity="0" stroke="#000000" stroke-width="1" stroke-opacity="1"></use></g></g><g><g><filter id="shadow4591891" x="-1.81" y="9.14" width="429.38" height="221.16" filterUnits="userSpaceOnUse" primitiveUnits="userSpaceOnUse"><feFlood></feFlood><feComposite in2="SourceAlpha" operator="in"></feComposite><feGaussianBlur stdDeviation="1"></feGaussianBlur><feOffset dx="1" dy="1" result="afterOffset"></feOffset><feFlood flood-color="#000000" flood-opacity="0.5"></feFlood><feComposite in2="afterOffset" operator="in"></feComposite><feMorphology operator="dilate" radius="1"></feMorphology><feComposite in2="SourceAlpha" operator="out"></feComposite></filter><path d="M121.36 189.49C103.6 203.08 63 206.17 42.08 195.05C35.09 191.35 23.68 175.9 16.69 160.43C-6.14 110.37 13.52 56.59 61.1 36.82C79.49 29.41 83.94 29.41 88.37 36.2C99.79 52.89 94.08 68.95 73.15 78.24C26.21 99.24 40.17 174.65 88.37 162.91C99.16 160.43 115.02 142.52 137.85 107.9C182.25 41.14 199.38 23.84 224.75 18.89C248.86 14.57 281.83 29.41 287.54 47.32C290.08 54.74 293.89 59.07 295.79 58.45C333.85 38.05 349.71 34.96 371.27 41.77C399.82 50.41 417.57 78.85 417.57 115.32C417.57 157.97 396.01 187.63 356.68 198.14C345.26 201.85 342.73 199.38 340.19 183.31C337.65 167.24 340.19 162.91 355.42 154.88C377.62 143.75 387.76 120.88 379.51 100.48C372.54 82.56 352.88 70.81 338.92 75.76C333.22 78.24 310.38 107.28 287.54 140.66C230.46 224.73 200.64 238.94 159.42 198.76C156.45 195.87 149.05 188.66 137.22 177.13C127.7 184.54 122.42 188.66 121.36 189.49ZM239.34 53.5C219.04 53.5 199.38 75.76 170.19 130.16C169.14 132.09 163.85 141.77 154.34 159.2C163.48 166.62 168.55 170.74 169.56 171.56C186.69 185.17 191.76 185.78 208.26 177.13C220.3 170.95 267.88 107.28 275.49 87.51C281.2 73.29 259.63 53.5 239.34 53.5Z" id="cbNeyz5w0" fill="white" fill-opacity="1" filter="url(#shadow4591891)"></path></g><use xlink:href="#fgkTPNEmn" opacity="1" fill="#d4af37" fill-opacity="0.95"></use><g><use xlink:href="#fgkTPNEmn" opacity="1" fill-opacity="0" stroke="#000000" stroke-width="1" stroke-opacity="0"></use></g></g></g></g></svg>