<?xml version="1.0" encoding="UTF-8" standalone="no"?>
<!DOCTYPE svg PUBLIC "-//W3C//DTD SVG 1.1//EN" "http://www.w3.org/Graphics/SVG/1.1/DTD/svg11.dtd">
<svg version="1.1" xmlns="http://www.w3.org/2000/svg" xmlns:xlink="http://www.w3.org/1999/xlink" preserveAspectRatio="xMidYMid meet" viewBox="0 0 640 640" width="1400" height="1400"><defs><path d="M242.46 25.41C242.7 25.21 242.92 25.02 243.14 24.84C243.77 24.33 244.6 24.15 245.38 24.36C246.04 24.5 246.59 24.94 246.87 25.55C247.25 26.26 247.36 27.08 247.2 27.88C246.96 29.14 245.86 30.05 244.58 30.06C244.38 29.65 244.26 29.2 244.23 28.75C244.41 28.47 244.67 28.56 244.88 28.5C245.65 28.34 246.14 27.58 245.98 26.8C245.92 26.56 245.81 26.33 245.64 26.14C245.33 25.78 244.8 25.71 244.41 25.98C244.1 26.19 243.84 26.47 243.65 26.79C243.37 27.22 243.1 27.66 242.84 28.1C242.54 28.62 242.17 29.11 241.73 29.53C241.16 30.13 240.36 30.45 239.53 30.43C238.75 30.39 238.02 30.06 237.48 29.51C237.25 29.29 237.06 29.04 236.84 28.79C236.51 28.81 236.4 29.13 236.2 29.31C235.64 29.81 234.88 30.03 234.14 29.92C233.62 29.86 233.13 29.61 232.77 29.23C231.66 28.1 231.65 25.81 232.85 24.81C233.34 24.36 233.97 24.11 234.63 24.09C234.95 24.52 234.91 25.02 235.08 25.4C234.95 25.57 234.76 25.67 234.56 25.67C233.82 25.73 233.25 26.35 233.25 27.1C233.29 27.48 233.45 27.84 233.71 28.12C233.88 28.28 234.03 28.31 234.5 28.33C235.14 28.11 235.47 27.56 235.82 27.04C236.14 26.47 236.5 25.92 236.88 25.39C236.93 25.34 237.29 24.93 237.33 24.87C238.14 23.94 239.19 23.72 240.35 23.92C240.91 24.05 241.42 24.34 241.81 24.76C241.94 24.89 242.33 25.28 242.46 25.41ZM241.11 25.77C240.5 25.11 239.49 25.08 238.84 25.69C238.83 25.69 238.83 25.69 238.83 25.69C238.82 25.7 238.76 25.76 238.75 25.77C238.25 26.3 237.83 26.9 237.51 27.56C237.62 27.86 237.8 28.14 238.04 28.37C238.63 29.04 239.65 29.11 240.31 28.51C240.31 28.51 240.32 28.51 240.32 28.51C240.34 28.49 240.37 28.46 240.4 28.43C240.93 27.89 241.36 27.26 241.66 26.56C241.54 26.25 241.35 25.98 241.11 25.77Z" id="facsM3fmbn"></path><path d="M337.83 29.16C338.19 27.49 338.54 25.81 338.86 24.23C339 24.08 339.2 24 339.41 24.02C339.92 24.02 340.43 24.02 340.94 24.02C341.59 23.99 342.23 24.22 342.72 24.65C343.13 25.22 343.26 25.95 343.08 26.62C343 27.1 342.85 27.57 342.63 28C342.13 28.92 341.18 29.52 340.14 29.58C339.43 29.61 338.69 29.57 337.87 29.57C337.84 29.44 337.83 29.3 337.83 29.16ZM339.92 28.53C340.62 28.57 341.27 28.13 341.49 27.46C341.65 27.07 341.74 26.65 341.76 26.22C341.8 25.91 341.71 25.59 341.51 25.35C341.25 25.17 340.95 25.07 340.64 25.07C340.4 25.02 340.16 25.09 339.99 25.27C339.79 26.29 339.42 27.31 339.36 28.42C339.53 28.52 339.73 28.56 339.92 28.53Z" id="bktPwvZr5"></path><path d="M348.67 285.54C347.88 287.38 346.99 289.17 346 290.91C345.75 291.05 345.46 291.06 345.2 290.95C344.99 290.77 345.03 290.53 345.02 290.3C344.91 288.55 344.83 287.14 344.81 286.79C344.61 286.79 344.6 286.93 344.55 287.03C343.65 288.82 342.93 290.25 342.75 290.61C342.7 290.71 342.64 290.81 342.58 290.89C342.31 291.02 341.98 291.02 341.71 290.89C341.51 290.33 341.6 289.73 341.54 289.14C341.49 288.56 341.42 287.95 341.39 287.35C341.36 286.76 341.19 286.17 341.29 285.56C341.49 285.38 341.78 285.35 342.02 285.46C342.07 285.53 342.11 285.6 342.13 285.68C342.23 286.39 342.29 287.11 342.29 287.83C342.29 288.34 342.35 288.85 342.38 289.36C342.39 289.37 342.48 289.42 342.49 289.42C343.22 288.15 343.79 286.78 344.5 285.52C344.84 285.38 345.22 285.36 345.57 285.47C345.81 286.78 345.7 288.1 345.81 289.39C346.05 289.46 346.09 289.27 346.14 289.17C346.61 288.19 347.05 287.21 347.52 286.23C347.62 285.95 347.78 285.69 347.99 285.48C348.25 285.42 348.47 285.37 348.67 285.54Z" id="h2NaHQ8DwL"></path><path d="M336.98 28.37C336.22 29.41 334.92 29.9 333.67 29.62C332.93 29.48 332.35 28.87 332.25 28.11C332.16 27.51 332.22 26.89 332.42 26.32C332.8 25.14 333.54 24.28 334.8 23.97C335.19 23.88 335.59 23.86 335.99 23.9C336.97 23.95 337.75 24.77 337.73 25.76C337.71 25.89 337.71 26.02 337.71 26.14C337.71 26.95 337.45 27.72 336.98 28.37ZM334.82 28.68C335.22 28.62 335.57 28.38 335.77 28.03C336.28 27.26 336.46 26.31 336.29 25.4C336.11 25.07 335.77 24.86 335.4 24.83C335.38 24.84 335.19 24.87 335.16 24.88C334.65 24.97 334.22 25.31 334.02 25.79C333.62 26.56 333.5 27.45 333.69 28.3C333.95 28.63 334.4 28.78 334.82 28.68Z" id="a7rrWsGNj0"></path><path d="M326.16 24.34C326.5 24.6 326.73 24.99 326.78 25.41C326.96 26.53 326.65 27.67 325.93 28.54C325.19 29.48 323.97 29.9 322.81 29.61C322.02 29.48 321.42 28.85 321.33 28.06C321.25 27.55 321.29 27.03 321.44 26.54C321.64 25.61 322.22 24.8 323.03 24.31C323.52 24.03 324.08 23.88 324.65 23.89C325.19 23.85 325.73 24.01 326.16 24.34ZM324.51 24.83C323.98 24.85 323.5 25.13 323.22 25.58C322.88 26.18 322.69 26.85 322.67 27.53C322.63 27.85 322.72 28.17 322.92 28.43C323.22 28.7 323.63 28.79 324.02 28.66C324.41 28.57 324.74 28.31 324.93 27.95C325.38 27.16 325.53 26.25 325.36 25.36C325.17 25.06 324.86 24.86 324.51 24.83Z" id="a2UuKWdbIf"></path><path d="M273.45 214.75C273.13 214.78 272.84 214.94 272.64 215.18C272.49 215.35 272.35 215.54 272.21 215.7C271.91 215.79 271.58 215.78 271.29 215.67C271.28 215.29 271.44 214.92 271.73 214.66C272.02 214.31 272.42 214.06 272.87 213.94C273.86 213.69 274.78 213.73 275.46 214.56C275.81 215.76 275.55 216.35 274.36 217.15C274.36 217.29 274.48 217.31 274.55 217.38C275.09 217.81 275.24 218.56 274.92 219.17C274.69 219.76 274.22 220.23 273.64 220.47C273.09 220.71 272.49 220.81 271.89 220.77C271.64 220.76 271.39 220.69 271.16 220.57C270.95 220.48 270.77 220.34 270.63 220.16C270.54 220.01 270.47 219.85 270.43 219.69C270.35 219.43 270.38 219.15 270.53 218.92C270.81 218.81 271.11 218.79 271.4 218.86C271.61 219.16 271.58 219.58 272.04 219.78C272.56 219.93 273.13 219.8 273.53 219.42C273.88 219.11 273.93 218.94 273.91 218.27C273.53 217.77 273.53 217.77 272.42 217.55C272.35 217.28 272.42 216.99 272.62 216.78C272.94 216.68 273.29 216.71 273.61 216.58C274.31 216.32 274.52 215.97 274.42 215.11C274.18 214.83 273.81 214.69 273.45 214.75Z" id="bcawYZ3Tf"></path><path d="M347.65 24.01C347.79 23.99 347.92 24.05 348 24.17C348.05 24.44 347.99 24.72 347.83 24.95C347.06 25.19 346.25 24.93 345.46 25.13C345.27 25.39 345.19 25.73 345.25 26.05C345.91 26.37 346.67 25.98 347.33 26.25C347.51 26.56 347.27 26.8 347.26 27.08C346.52 27.32 345.77 27.08 345 27.25C344.79 27.62 344.71 28.05 344.76 28.47C345.53 28.62 346.3 28.45 347.04 28.59C347.16 28.9 347.1 29.25 346.89 29.51C345.76 29.6 344.62 29.63 343.48 29.58C343.4 29.56 343.33 29.53 343.26 29.48C343.49 27.64 343.87 25.82 344.39 24.04C345.49 24 346.57 24 347.65 24.01Z" id="a667GHA8r"></path><path d="M330.91 25.85C330.68 25.63 330.76 25.33 330.57 25.08C330.42 24.9 330.16 24.9 329.95 24.85C329.56 24.92 329.23 25.18 329.06 25.54C328.67 26.21 328.47 26.98 328.49 27.75C328.5 27.9 328.52 28.05 328.56 28.19C328.62 28.54 328.96 28.78 329.31 28.71C329.31 28.71 329.31 28.71 329.31 28.71C329.31 28.71 329.31 28.71 329.31 28.71C329.4 28.7 329.48 28.68 329.56 28.66C329.67 28.62 329.76 28.56 329.9 28.5C329.95 28.43 330.36 27.85 330.41 27.78C330.81 27.67 331.24 27.68 331.63 27.82C331.58 28.33 331.31 28.8 330.89 29.1C330.18 29.66 329.27 29.86 328.4 29.65C327.8 29.52 327.33 29.05 327.19 28.45C327.06 27.92 327.06 27.37 327.19 26.84C327.33 26.07 327.67 25.36 328.18 24.78C328.94 23.98 330.11 23.7 331.16 24.07C331.81 24.26 332.22 24.91 332.12 25.59C332.1 25.68 332.07 25.77 332.02 25.85C331.65 25.93 331.27 25.93 330.91 25.85Z" id="c4X7E9yaG"></path><path d="M351.81 25.87C351.57 25.62 351.73 25.25 351.5 25.13C351.34 24.98 351.12 24.88 350.9 24.86C350.49 24.92 350.14 25.17 349.97 25.55C349.66 26.06 349.48 26.65 349.45 27.25C349.41 27.61 349.44 27.99 349.52 28.35C349.64 28.59 349.89 28.73 350.15 28.71C350.44 28.71 350.72 28.57 350.9 28.35C351.06 28.15 351.2 27.94 351.35 27.72C351.75 27.68 352.13 27.58 352.54 27.79C352.5 28.28 352.25 28.74 351.85 29.03C351.16 29.61 350.24 29.83 349.36 29.63C348.67 29.5 348.14 28.94 348.05 28.23C347.99 27.87 347.99 27.49 348.05 27.12C348.15 26.27 348.5 25.46 349.06 24.81C349.81 23.95 351.01 23.64 352.08 24.03C352.83 24.33 353.12 24.86 352.98 25.81C352.6 25.93 352.2 25.95 351.81 25.87Z" id="b9w3NSOTo"></path><path d="M338.82 146.36C338.46 146.52 338.19 146.84 338.11 147.23C337.8 147.39 337.45 147.41 337.13 147.31C337.03 147.18 337.02 147 337.11 146.86C337.74 145.43 339.02 145.14 340.12 145.38C340.89 145.54 341.24 146.09 341.19 146.89C341.14 147.55 340.85 148.17 340.37 148.62C339.93 149.07 339.46 149.49 339 149.9C338.64 150.22 338.26 150.52 337.89 150.84C337.8 150.91 337.69 150.96 337.73 151.13C338.53 151.25 339.35 151.05 340.16 151.25C340.18 151.25 340.2 151.28 340.23 151.3C340.29 151.56 340.22 151.84 340.05 152.05C339.61 152.14 339.16 152.17 338.72 152.12C338.58 152.12 337.49 152.12 337.36 152.12C336.91 152.15 336.46 152.13 336.02 152.07C335.99 151.97 335.97 151.88 335.95 151.78C335.96 151.55 336.02 151.32 336.14 151.12C336.85 150.52 337.65 149.88 338.42 149.21C338.83 148.86 339.22 148.48 339.58 148.08C339.99 147.62 340.07 147.27 339.97 146.54C339.66 146.25 339.2 146.18 338.82 146.36Z" id="a1DusczShh"></path><path d="M321.42 24.6C320.45 26.25 319.54 27.93 318.54 29.53C318.13 29.61 317.71 29.62 317.3 29.55C317.13 29.32 317.03 29.04 317.03 28.76C316.79 27.32 316.57 25.89 316.35 24.43C316.35 24.34 316.35 24.25 316.37 24.15C316.76 23.99 317.2 23.96 317.62 24.07C317.78 24.46 317.87 24.89 317.88 25.32C317.94 25.77 317.99 26.22 318.04 26.68C318.03 27.14 318.1 27.59 318.25 28.02C319.05 26.67 319.69 25.34 320.44 24.08C320.8 23.98 321.19 23.98 321.54 24.09C321.59 24.27 321.54 24.46 321.42 24.6Z" id="k2cYLwDGJa"></path><path d="M370.43 218.55C370.54 218.77 370.52 219.03 370.38 219.24C370.32 219.28 370.28 219.33 370.23 219.33C369.98 219.37 369.72 219.4 369.48 219.43C369.2 219.79 369.29 220.28 369.02 220.65C368.8 220.78 368.53 220.79 368.31 220.67C368.27 220.62 368.24 220.57 368.21 220.51C368.12 220.16 368.32 219.84 368.28 219.44C367.57 219.25 366.83 219.47 366.15 219.31C366 219.2 365.94 218.99 366.02 218.81C366.07 218.59 366.17 218.38 366.31 218.2C366.6 217.81 368.94 214.7 369.23 214.31C369.28 214.24 369.33 214.18 369.38 214.12C369.71 213.97 370.09 213.98 370.41 214.14C370.38 214.86 370.12 215.53 370 216.22C369.87 216.92 369.77 217.63 369.65 218.29C369.89 218.53 370.19 218.38 370.43 218.55ZM369.01 216.07C368.35 216.76 367.79 217.55 367.36 218.41C367.74 218.46 368.12 218.46 368.5 218.41C368.78 217.66 368.95 216.87 369.01 216.07Z" id="f1kFqQSktV"></path><path d="M233.26 324.7C234.07 324.57 234.9 324.59 235.71 324.73C236.5 324.84 237.1 325.5 237.14 326.3C237.29 327.48 236.86 328.67 235.98 329.47C235.61 329.83 235.14 330.07 234.64 330.16C233.82 330.29 233 330.31 232.18 330.21C232.13 330.21 232.08 330.16 232.04 330.12C231.99 330.08 231.98 330.02 231.99 329.96C232.53 327.42 232.97 325.38 233.08 324.87C233.09 324.79 233.15 324.79 233.19 324.74C233.21 324.72 233.23 324.7 233.26 324.7ZM234.47 329.41C234.81 329.37 235.12 329.21 235.36 328.96C236 328.33 236.31 327.44 236.21 326.54C236.18 326.04 235.81 325.62 235.32 325.54C234.85 325.42 234.36 325.42 233.89 325.54C233.54 326.8 233.26 328.08 233.07 329.37C233.53 329.47 234 329.48 234.47 329.41Z" id="a5gxQYTNyy"></path><path d="M363.46 51.22C363.72 49.56 364.09 47.92 364.57 46.31C364.71 46.21 364.88 46.17 365.05 46.19C365.2 46.19 366.43 46.19 366.58 46.19C366.7 46.19 366.82 46.19 366.94 46.19C367.84 46.33 368.44 46.76 368.56 47.79C368.76 49.13 368.2 50.46 367.11 51.24C366.72 51.54 366.25 51.71 365.76 51.73C365.08 51.76 364.4 51.73 363.72 51.73C363.64 51.72 363.56 51.69 363.5 51.65C363.43 51.52 363.42 51.36 363.46 51.22ZM365.76 50.94C366.36 50.85 366.89 50.49 367.18 49.96C367.43 49.54 367.58 49.07 367.62 48.59C367.69 48.14 367.58 47.69 367.31 47.32C366.72 46.9 365.96 46.82 365.29 47.09C364.9 48.34 364.65 49.63 364.53 50.93C364.94 51.01 365.35 51.01 365.76 50.94Z" id="c4dys4bPxL"></path><path d="M323.18 288.18C323.33 287.29 323.54 286.46 323.75 285.6C323.83 285.49 323.96 285.43 324.1 285.43C324.3 285.43 325.86 285.43 326.06 285.43C326.73 285.41 327.34 285.8 327.62 286.41C327.69 286.54 327.74 286.67 327.77 286.81C328.04 288.32 327.36 289.83 326.06 290.62C325.84 290.75 325.6 290.84 325.35 290.89C324.45 291.03 323.54 291.05 322.64 290.95C322.76 289.95 323.03 289.08 323.18 288.18ZM324.63 286.22C324.57 286.29 324.51 286.33 324.5 286.38C324.12 287.99 323.84 289.28 323.76 289.6C323.7 289.78 323.76 289.99 323.91 290.12C324.93 290.25 325.91 290.18 326.57 288.93C326.82 288.25 327.18 287.4 326.5 286.47C325.93 286.18 325.27 286.09 324.63 286.22Z" id="aVa22IOnE"></path><path d="M332.11 289.48C332.06 289.93 332.06 290.39 332.04 290.83C331.84 291.02 331.53 291.04 331.29 290.9C331.17 290.55 331.14 290.18 331.2 289.82C331.24 289.46 331.22 289.1 331.13 288.75C330.48 288.49 330.29 288.48 329.5 288.63C329.19 289.32 329.16 290.11 328.93 290.83C328.53 291 328.53 291 328.1 290.83C328.37 289.07 328.85 287.35 329.15 285.67C329.26 285.5 329.46 285.41 329.66 285.42C329.85 285.42 331.34 285.42 331.53 285.42C331.81 285.42 332.1 285.49 332.34 285.63C332.77 285.84 332.98 286.32 332.86 286.78C332.78 287.18 332.57 287.54 332.28 287.81C332.16 287.94 332.02 288.03 331.86 288.17C332.12 288.55 332.21 289.03 332.11 289.48ZM329.7 287.62C330.7 287.81 331 287.77 331.7 287.35C331.92 287.07 331.93 286.69 331.74 286.4C331.18 286.07 330.6 286.15 329.93 286.24C329.86 286.75 329.62 287.16 329.7 287.62Z" id="f1qN4Lbdi"></path><path d="M261.75 330.23C261.92 330.51 261.79 330.7 261.66 330.89C261.63 330.91 261.61 330.92 261.58 330.93C261.27 330.93 260.96 330.99 260.65 330.98C259.86 330.95 259.07 331.06 258.33 330.91C258.23 330.78 258.2 330.62 258.23 330.46C258.51 328.77 258.89 327.11 259.36 325.47C260.48 325.3 261.62 325.31 262.74 325.49C262.75 325.57 262.75 325.65 262.74 325.73C262.71 325.85 262.68 325.96 262.64 326.06C262.22 326.25 261.79 326.15 261.37 326.17C260.96 326.18 260.53 326.17 260.13 326.2C259.8 326.94 259.77 327.01 259.86 327.63C260.24 327.71 260.64 327.74 261.03 327.71C261.38 327.67 261.74 327.69 262.09 327.77C262.19 327.99 262.13 328.25 261.95 328.4C261.2 328.55 260.4 328.36 259.6 328.52C259.41 329.02 259.29 329.55 259.26 330.09C260.15 330.25 260.99 330.03 261.75 330.23Z" id="bc8nnNxQG"></path><path d="M351.97 288.47C351.23 288.66 350.42 288.44 349.62 288.6C349.39 289.06 349.26 289.57 349.23 290.08C350.1 290.31 350.97 290.02 351.77 290.27C351.86 290.5 351.8 290.76 351.62 290.92C350.52 291.02 349.41 291.03 348.31 290.95C348.2 290.85 348.16 290.7 348.21 290.56C348.41 289.58 348.6 288.6 348.81 287.62C348.95 287.1 349.06 286.57 349.14 286.03C349.17 285.86 349.23 285.69 349.3 285.52C349.85 285.33 350.43 285.44 350.98 285.43C351.53 285.39 352.08 285.4 352.62 285.47C352.75 285.64 352.76 285.86 352.64 286.04C352.29 286.27 351.83 286.14 351.42 286.16C351.01 286.18 350.57 286.19 350.14 286.19C349.84 286.64 349.86 287.13 349.75 287.55C349.88 287.7 350.07 287.76 350.26 287.73C350.4 287.73 351.49 287.73 351.62 287.73C351.8 287.7 351.97 287.75 352.1 287.86C352.17 288.07 352.12 288.3 351.97 288.47Z" id="eaNMIxon3K"></path><path d="M361.04 50.98C361.44 50.95 361.83 50.98 362.22 51.04C362.29 51.23 362.29 51.43 362.22 51.62C362.11 51.72 361.97 51.77 361.83 51.76C360.81 51.83 359.79 51.8 358.78 51.66C358.76 51.61 358.71 51.55 358.72 51.51C359.21 49.07 359.6 47.13 359.7 46.64C359.72 46.5 359.79 46.37 359.9 46.28C360.99 46.17 362.1 46.17 363.19 46.28C363.24 46.58 363.24 46.58 363.05 46.9C362.26 47.01 361.43 46.87 360.61 47.01C360.4 47.43 360.29 47.89 360.29 48.36C360.65 48.62 361.07 48.48 361.45 48.51C361.81 48.49 362.18 48.52 362.54 48.59C362.62 48.9 362.62 48.9 362.46 49.25C361.7 49.43 360.9 49.23 360.11 49.38C359.89 49.85 359.78 50.36 359.77 50.88C360.2 51.05 360.63 50.95 361.04 50.98Z" id="b4uF5rtfk"></path><path d="M239.51 289.91C239.71 289.78 239.95 289.74 240.18 289.81C240.41 289.92 240.4 290.22 240.69 290.39C241.04 290.54 241.44 290.48 241.72 290.23C242.16 289.85 242.32 289.24 242.13 288.68C241.54 288.21 241.2 288.28 240.38 289.04C240.2 289.13 239.98 289.1 239.84 288.96C239.91 287.91 240.15 286.88 240.55 285.9C241.49 285.78 242.45 285.78 243.39 285.9C243.45 286.09 243.43 286.3 243.34 286.47C243.27 286.51 243.19 286.53 243.11 286.55C242.77 286.55 242.43 286.55 242.09 286.57C241.79 286.55 241.5 286.57 241.21 286.64C240.98 286.97 240.86 287.36 240.85 287.76C240.92 287.75 241.47 287.64 241.54 287.62C242.5 287.43 243.15 288.1 243.13 289.02C243.09 290.31 242.02 291.32 240.74 291.27C240.74 291.27 240.74 291.27 240.74 291.27C240.53 291.27 240.33 291.23 240.13 291.17C240.01 291.11 239.88 291.05 239.76 290.98C239.47 290.7 239.38 290.28 239.51 289.91Z" id="bUJSFSXvD"></path><path d="M293.25 281.52C293.21 281.52 292.93 281.52 292.89 281.52C292.83 281.46 292.77 281.4 292.72 281.33C292.37 280.73 292.03 280.56 291.4 280.72C291 280.8 290.65 281.03 290.43 281.37C289.94 282.08 289.69 282.94 289.72 283.8C289.76 284.68 290.43 285.12 291.26 284.85C291.63 284.7 291.95 284.43 292.16 284.09C292.32 284.09 292.46 284.06 292.6 284.05C292.72 284.03 292.84 284.07 292.93 284.15C292.98 284.25 292.98 284.37 292.91 284.45C292.34 285.48 291.01 285.89 289.93 285.6C289.45 285.49 289.07 285.12 288.93 284.64C288.89 284.56 288.87 284.48 288.85 284.4C288.66 282.92 288.98 281.59 290.09 280.56C290.72 279.95 291.62 279.71 292.47 279.92C292.8 279.99 293.11 280.17 293.34 280.42C293.63 280.69 293.72 281.1 293.56 281.46C293.46 281.49 293.35 281.51 293.25 281.52Z" id="h10yV66Mwq"></path><path d="M419.06 214.22C419.23 214.56 419.25 214.95 419.11 215.3C418.98 215.54 418.8 215.75 418.57 215.92C418.62 216.01 418.65 216.08 418.69 216.15C419.08 216.74 418.92 217.54 418.34 217.94C418.29 217.97 418.24 217.99 418.2 218.02C418.05 218.11 417.89 218.17 417.72 218.21C417.02 218.32 416.31 218.32 415.61 218.21C415.57 218.09 415.55 217.97 415.55 217.85C415.82 216.57 416.1 215.26 416.41 213.95C417.79 213.73 418.39 213.8 419.06 214.22ZM417.52 217.6C417.75 217.58 417.95 217.44 418.06 217.24C418.23 217.03 418.23 216.73 418.06 216.52C417.61 216.32 417.09 216.32 416.64 216.52C416.47 216.84 416.4 217.2 416.43 217.56C416.8 217.64 417.16 217.65 417.52 217.6ZM416.85 215.65C417.19 215.72 417.54 215.72 417.88 215.65C418.11 215.61 418.3 215.45 418.38 215.23C418.49 215.04 418.45 214.79 418.29 214.63C417.89 214.51 417.47 214.49 417.07 214.58C416.87 214.9 416.79 215.28 416.85 215.65Z" id="a1koUZxXXw"></path><path d="M240.52 147.06C240.69 146.96 242.07 146.19 242.25 146.09C242.59 146 242.95 146.05 243.26 146.22C242.84 148.21 242.43 150.22 242.01 152.22C241.97 152.37 241.91 152.52 241.84 152.67C241.58 152.77 241.3 152.79 241.03 152.72C240.91 152.6 240.88 152.42 240.94 152.27C241.37 150.18 241.71 148.5 241.8 148.08C241.85 147.86 241.89 147.64 241.95 147.37C241.37 147.49 240.99 147.94 240.39 148.04C240.33 147.71 240.38 147.37 240.52 147.06Z" id="aT01M4NVz"></path><path d="M154.08 187.38C154.44 188.34 154.84 189.34 155.21 190.32C155.42 190.32 155.44 190.22 155.46 190.11C155.58 189.32 155.74 188.53 155.95 187.76C155.98 187.62 156.03 187.49 156.05 187.42C156.14 187.31 156.27 187.25 156.41 187.26C156.48 187.29 156.55 187.32 156.62 187.36C156.42 188.77 156.12 190.17 155.71 191.53C155.49 191.69 155.21 191.71 154.97 191.59C154.41 190.62 154.19 189.49 153.62 188.42C153.32 188.96 153.33 189.49 153.21 190.01C153.08 190.53 152.97 191.01 152.87 191.44C152.76 191.62 152.53 191.7 152.34 191.61C152.31 191.55 152.24 191.46 152.25 191.4C152.53 190.07 152.73 188.72 153.14 187.38C153.43 187.21 153.79 187.21 154.08 187.38Z" id="a1TP0OTRpy"></path><path d="M156.28 247.23C156.28 247.23 156.28 247.23 156.28 247.23C156.12 248.6 155.73 249.95 155.47 251.29C155.19 251.44 154.87 251.46 154.57 251.35C154.45 251.05 153.5 248.62 153.38 248.31C153.19 248.31 153.16 248.42 153.14 248.54C152.93 249.45 152.73 250.37 152.54 251.26C152.44 251.43 152.22 251.49 152.05 251.39C152.03 251.38 152.01 251.36 151.99 251.34C151.99 251.29 151.93 251.23 151.93 251.19C152.04 250.6 152.15 250.01 152.26 249.42C152.38 248.84 152.47 248.35 152.59 247.83C152.64 247.61 152.72 247.4 152.77 247.19C153.05 247.06 153.37 247.03 153.67 247.12C154.18 248.05 154.43 249.11 154.9 250.1C155.07 249.91 155.17 249.67 155.2 249.42C155.26 249.17 155.33 248.92 155.38 248.67C155.43 248.42 155.45 248.16 155.51 247.91C155.54 247.67 155.62 247.44 155.74 247.23C155.89 247.07 156.13 247.07 156.28 247.23Z" id="d39nmnwG7H"></path><path d="M253.33 29.4C253.33 29.38 253.33 29.15 253.33 29.12C253.25 27.53 253.27 25.93 253.4 24.34C253.53 24.22 253.72 24.19 253.88 24.26C254.09 24.4 254.26 24.59 254.37 24.82C255.04 25.89 255.71 26.94 256.39 27.99C256.51 28.17 256.57 28.42 256.84 28.49C256.92 27.12 256.79 25.75 256.92 24.39C256.92 24.36 256.95 24.34 256.96 24.32C257.07 24.23 257.17 24.26 257.28 24.32C257.32 24.4 257.34 24.47 257.36 24.55C257.36 25.01 257.36 28.64 257.36 29.09C257.35 29.22 257.33 29.35 257.3 29.47C257.17 29.6 256.98 29.63 256.81 29.56C256.3 28.87 255.83 28.16 255.39 27.41C254.92 26.7 254.47 25.98 254.02 25.27C253.79 25.27 253.85 25.43 253.85 25.52C253.85 25.83 253.85 28.37 253.85 28.68C253.9 28.97 253.87 29.26 253.76 29.52C253.64 29.58 253.54 29.61 253.33 29.4Z" id="aU2aWgLYE"></path><path d="M335.29 290.86C335.05 291.05 334.71 291.03 334.49 290.83C334.54 290.54 334.57 290.24 334.62 289.94C334.68 289.64 334.75 289.32 334.8 289.05C334.49 287.82 333.84 286.76 333.56 285.57C333.82 285.4 334.15 285.37 334.43 285.51C334.87 286.22 335.07 287.11 335.55 287.89C336.35 287.12 336.88 286.19 337.64 285.49C337.88 285.39 338.16 285.39 338.4 285.49C338.4 285.56 338.45 285.63 338.43 285.65C338.03 286.17 337.62 286.69 337.21 287.2C336.73 287.8 336.24 288.39 335.77 288.97C335.59 289.69 335.44 290.29 335.29 290.86Z" id="b15oXwlqrA"></path><path d="M398.41 296.6C398.48 295.8 398.86 295.06 399.47 294.54C400.08 294.04 400.9 293.89 401.64 294.14C402.03 294.25 402.34 294.55 402.45 294.95C402.5 295.08 402.54 295.21 402.56 295.35C402.63 296.37 402.39 297.31 401.61 297.99C400.9 298.69 399.8 298.82 398.94 298.32C398.48 297.88 398.27 297.23 398.41 296.6ZM400.09 297.96C400.49 297.98 400.88 297.83 401.16 297.55C401.46 297.24 401.65 296.85 401.71 296.42C401.77 295.92 401.92 295.4 401.58 294.95C400.54 294.47 399.77 294.75 399.38 295.75C399.15 296.28 399.09 296.88 399.22 297.44C399.39 297.78 399.73 297.98 400.09 297.96Z" id="a2ePId9nLR"></path><path d="M401.86 242.57C401.3 243.28 400.37 243.6 399.5 243.38C398.94 243.29 398.51 242.85 398.43 242.29C398.23 241.11 398.71 239.92 399.67 239.22C400.34 238.8 401.16 238.75 401.88 239.08C402.09 239.17 402.26 239.33 402.35 239.54C402.52 239.84 402.61 240.18 402.6 240.52C402.58 241.27 402.32 241.99 401.86 242.57ZM400.42 239.56C400.05 239.64 399.74 239.88 399.56 240.21C399.17 240.85 399.05 241.63 399.24 242.36C399.46 242.67 399.84 242.84 400.22 242.8C400.65 242.79 401.06 242.57 401.31 242.22C401.81 241.53 401.94 240.63 401.67 239.82C401 239.45 400.9 239.45 400.42 239.56Z" id="aHeYBzw3u"></path><path d="M292.53 28.04C292.23 29.24 291.05 29.99 289.85 29.75C289.29 29.65 288.79 29.32 288.49 28.82C287.8 27.81 287.72 26.49 288.28 25.39C288.77 24.26 290.07 23.75 291.2 24.24C291.2 24.24 291.2 24.24 291.21 24.24C291.29 24.28 291.36 24.32 291.44 24.37C291.53 24.44 291.64 24.51 291.74 24.57C292.81 25.58 292.81 26.82 292.53 28.04ZM290.73 29.22C291.22 29.14 291.63 28.81 291.82 28.35C292.26 27.46 292.26 26.43 291.82 25.54C291.57 24.95 290.98 24.57 290.34 24.6C290.28 24.6 289.8 24.62 289.74 24.62C288.97 24.97 288.48 25.76 288.51 26.61C288.51 26.69 288.51 27.38 288.51 27.46C288.53 27.78 288.62 28.08 288.79 28.35C289.1 28.94 289.71 29.31 290.38 29.3C290.45 29.3 290.59 29.25 290.73 29.22Z" id="b8e0OoX0OX"></path><path d="M263.47 29.21C263.47 28.75 263.47 25.06 263.47 24.6C263.48 24.5 263.51 24.39 263.56 24.29C264.29 24.2 265.04 24.17 265.78 24.23C266.82 24.41 267.61 25.29 267.68 26.36C267.71 26.7 267.71 27.04 267.68 27.38C267.66 28.45 266.89 29.35 265.85 29.53C265.1 29.65 264.33 29.67 263.57 29.57C263.52 29.46 263.49 29.34 263.47 29.21ZM263.97 25.11C263.97 27 263.99 28.5 263.99 28.88C263.99 28.93 264.04 28.98 264.07 29.03C264.59 29.16 265.13 29.18 265.65 29.08C266.41 28.99 267.02 28.39 267.12 27.63C267.21 27.15 267.2 26.65 267.1 26.18C266.98 25.48 266.47 24.92 265.79 24.75C265.21 24.62 264.62 24.6 264.04 24.71C264 24.84 263.98 24.98 263.97 25.11Z" id="bfru4hv6l"></path><path d="M418.36 186.21C418.55 186.36 419.16 189.53 419.19 190.45C419.04 190.6 418.82 190.63 418.64 190.53C418.34 190.27 418.51 189.79 418.16 189.5C417.58 189.42 416.99 189.42 416.41 189.5C416.16 189.84 415.91 190.18 415.66 190.52C415.54 190.55 415.42 190.57 415.3 190.57C415.23 190.55 415.15 190.53 415.08 190.49C415.08 190.42 415.06 190.35 415.08 190.31C416.28 188.39 417.25 186.87 417.49 186.48C417.56 186.39 417.62 186.3 417.71 186.21C417.92 186.12 418.15 186.12 418.36 186.21ZM418.09 188.64C418.09 188.13 418.02 187.62 417.86 187.14C417.48 187.61 417.16 188.13 416.91 188.68C417.3 188.82 417.72 188.8 418.09 188.64Z" id="aJMSMaD1t"></path><path d="M294.29 24.28C294.52 24.48 294.72 24.72 294.85 25C295.81 26.51 296.59 27.72 296.79 28.03C296.87 28.16 296.92 28.35 297.14 28.38C297.21 28.06 297.23 27.72 297.2 27.39C297.2 27.1 297.2 24.79 297.2 24.5C297.34 24.26 297.46 24.23 297.65 24.3C297.69 24.4 297.72 24.51 297.74 24.61C297.8 25.38 297.74 28.98 297.68 29.49C297.55 29.65 297.39 29.64 297.17 29.55C296.64 28.9 296.23 28.12 295.74 27.38C295.26 26.64 294.85 25.95 294.26 25.08C294.15 26.69 294.26 28.08 294.19 29.41C294.08 29.57 293.98 29.6 293.86 29.54C293.83 29.5 293.78 29.45 293.78 29.41C293.75 29.24 293.74 29.07 293.74 28.9C293.74 28.5 293.74 25.35 293.74 24.96C293.74 24.75 293.75 24.53 293.78 24.32C293.93 24.23 294.12 24.21 294.29 24.28Z" id="gueEYwAVB"></path><path d="M372.66 49.3C372.81 48.52 373 47.81 373.07 47.01C372.52 46.86 371.96 47.05 371.44 46.88C371.43 46.79 371.43 46.69 371.44 46.6C371.47 46.49 371.51 46.37 371.55 46.27C371.67 46.23 371.79 46.21 371.91 46.2C372.28 46.2 375.29 46.2 375.67 46.2C375.74 46.21 375.82 46.23 375.89 46.27C376.02 46.46 375.99 46.71 375.81 46.86C375.32 47.03 374.77 46.86 374.24 46.97C374.03 47.11 374.01 47.33 373.97 47.57C373.72 48.74 373.47 49.92 373.22 51.09C373.17 51.27 373.11 51.45 373.05 51.63C372.81 51.79 372.49 51.81 372.24 51.68C372.24 50.84 372.51 50.08 372.66 49.3Z" id="aw5w7fiZy"></path><path d="M357 286.15C356.85 286.16 355.63 286.21 355.48 286.22C355.28 286.55 355.16 286.91 355.12 287.29C354.89 288.33 354.67 289.36 354.45 290.39C354.43 290.6 354.35 290.79 354.21 290.93C353.98 291.05 353.71 291.01 353.53 290.83C353.67 289.33 354.21 287.87 354.37 286.37C354.24 286.16 354.06 286.2 353.9 286.19C353.53 286.21 353.16 286.19 352.8 286.12C352.77 286.04 352.74 285.95 352.73 285.86C352.74 285.75 352.77 285.64 352.8 285.53C352.92 285.49 353.04 285.46 353.16 285.44C353.79 285.4 356.65 285.46 357.18 285.51C357.27 285.74 357.2 286 357 286.15Z" id="frAqsi6hb"></path><path d="M403.17 297.27C403.31 296.23 403.53 295.2 403.86 294.2C404.01 294.06 404.24 294.06 404.39 294.2C404.46 294.33 404.46 294.48 404.42 294.62C404.28 295.29 404.13 295.96 404 296.63C403.96 296.8 403.94 296.97 403.94 297.14C403.9 297.53 404.18 297.88 404.57 297.93C404.62 297.94 404.68 297.94 404.74 297.93C405.06 297.93 405.12 297.93 405.69 297.57C405.93 297.26 406.09 296.89 406.15 296.5C406.25 295.93 406.38 295.38 406.51 294.82C406.53 294.59 406.6 294.37 406.72 294.18C406.89 294.04 407.13 294.04 407.29 294.18C407.32 294.25 407.34 294.32 407.34 294.4C407.22 295.05 407.09 295.69 406.95 296.33C406.89 296.67 406.79 297 406.66 297.31C406.25 298.28 405.21 298.79 404.2 298.52C404.01 298.48 403.83 298.42 403.64 298.34C403.32 298.08 403.15 297.68 403.17 297.27Z" id="asDd0Fhcd"></path><path d="M275.33 27.11C274.8 27.03 274.26 27.03 273.73 27.11C273.54 27.91 273.75 28.71 273.61 29.42C273.54 29.54 273.39 29.6 273.25 29.56C273.21 29.51 273.15 29.48 273.14 29.43C273.11 29.32 273.1 29.21 273.1 29.1C273.1 28.66 273.1 25.18 273.1 24.75C273.1 24.61 273.12 24.47 273.15 24.34C273.23 24.29 273.32 24.26 273.42 24.24C274.07 24.24 274.72 24.2 275.37 24.24C276.02 24.27 276.59 24.49 276.87 25.16C276.92 25.46 276.92 25.77 276.87 26.07C276.72 26.58 276.33 26.81 275.9 27.06C276.29 27.87 276.66 28.66 277.02 29.4C276.91 29.64 276.78 29.63 276.58 29.55C276.33 29.06 275.58 27.6 275.33 27.11ZM276.23 25.12C276.01 24.82 275.66 24.64 275.29 24.63C275.18 24.63 274.3 24.63 274.18 24.63C273.99 24.6 273.8 24.67 273.67 24.82C273.67 25.05 273.65 25.33 273.67 25.61C273.63 25.93 273.67 26.25 273.76 26.56C274.21 26.62 274.66 26.64 275.11 26.62C275.56 26.65 275.99 26.47 276.28 26.12C276.45 25.81 276.44 25.42 276.23 25.12Z" id="c3Y1DPgfeI"></path><path d="M251.71 28.52C251.86 28.07 251.64 27.58 251.21 27.39C250.82 27.16 250.4 26.97 249.96 26.84C249.6 26.74 249.27 26.55 249.01 26.29C248.52 25.85 248.49 25.09 248.92 24.6C249.04 24.48 249.18 24.37 249.34 24.3C249.8 24.07 250.33 24.02 250.83 24.15C251.32 24.26 251.75 24.57 252 25.01C252.05 25.19 251.95 25.37 251.78 25.43C251.52 25.37 251.47 25.15 251.33 25.02C251.17 24.9 251.01 24.78 250.85 24.67C250.65 24.67 250.46 24.62 250.26 24.62C250.07 24.61 249.95 24.64 249.79 24.66C249.36 24.78 249.11 25.23 249.23 25.66C249.23 25.67 249.25 25.73 249.25 25.73C249.46 26 249.74 26.2 250.07 26.3C250.49 26.47 250.91 26.66 251.33 26.82C251.62 26.93 251.88 27.13 252.06 27.39C252.28 27.7 252.36 28.09 252.28 28.47C252.23 28.67 252.16 28.87 252.08 29.06C251.54 29.71 250.68 29.98 249.87 29.78C249.19 29.66 248.62 29.18 248.38 28.53C248.36 28.35 248.47 28.18 248.65 28.14C249.64 29.3 249.92 29.4 251.18 29.09C251.41 28.96 251.59 28.76 251.71 28.52Z" id="d3BLRax1YU"></path><path d="M309.22 25.42C308.89 25.25 308.73 24.82 308.34 24.67C307.96 24.56 307.56 24.55 307.18 24.65C306.85 24.87 306.59 25.12 306.66 25.56C306.82 25.9 307.12 26.15 307.47 26.25C307.9 26.42 308.31 26.61 308.74 26.76C309.03 26.88 309.28 27.07 309.47 27.32C309.78 27.67 309.87 28.16 309.71 28.6C309.58 29.05 309.25 29.41 308.82 29.58C307.97 29.92 307.15 29.91 306.42 29.28C306.13 29.07 305.92 28.78 305.79 28.44C305.81 28.25 305.98 28.1 306.18 28.12C306.18 28.12 306.2 28.12 306.2 28.12C306.27 28.23 306.33 28.35 306.41 28.48C306.89 29.19 307.8 29.46 308.58 29.12C308.93 28.97 309.18 28.65 309.24 28.27C309.21 27.86 308.95 27.51 308.58 27.35C308.21 27.14 307.82 26.97 307.41 26.86C307.08 26.75 306.78 26.59 306.52 26.37C305.92 25.91 305.94 24.71 306.72 24.34C307.21 24.08 307.77 24.02 308.3 24.16C308.82 24.26 309.26 24.61 309.48 25.1C309.45 25.24 309.36 25.36 309.22 25.42Z" id="aAIKG3he6"></path><path d="M404.35 239.03C404.45 239.13 404.48 239.29 404.42 239.43C404.22 240.43 404.05 241.23 404 241.43C403.92 241.74 403.92 242.06 404 242.36C404.58 242.95 404.8 242.96 405.72 242.42C405.95 242.11 406.11 241.74 406.17 241.35C406.26 240.78 406.39 240.23 406.5 239.67C406.52 239.44 406.61 239.22 406.75 239.04C406.91 238.91 407.14 238.93 407.29 239.07C407.29 239.1 407.32 239.13 407.32 239.15C407.15 240.04 407.03 240.94 406.79 241.82C406.45 243.03 405.54 243.58 404.32 243.43C403.67 243.41 403.16 242.86 403.18 242.2C403.18 242.2 403.18 242.18 403.18 242.17C403.18 242.09 403.19 242 403.2 241.92C403.35 240.96 403.52 240 403.77 239.08C404.04 238.93 404.2 238.92 404.35 239.03Z" id="b68TZxCYv"></path><path d="M279.92 27.35C279.51 27.33 279.11 27.35 278.71 27.41C278.56 28.13 278.73 28.84 278.6 29.49C278.48 29.59 278.31 29.61 278.18 29.53C278.14 29.44 278.11 29.34 278.09 29.25C278.03 27.62 278.06 26 278.18 24.38C278.22 24.34 278.26 24.28 278.3 24.28C279.01 24.18 279.73 24.17 280.44 24.25C281.26 24.28 281.89 24.97 281.86 25.8C281.86 25.96 281.82 26.12 281.77 26.28C281.7 26.44 281.63 26.6 281.55 26.75C281.11 27.16 280.52 27.37 279.92 27.35ZM278.77 26.81C279.31 26.86 279.86 26.86 280.4 26.81C280.97 26.75 281.37 26.23 281.3 25.66C281.28 25.42 281.16 25.19 280.98 25.02C280.78 24.82 280.51 24.71 280.22 24.69C279.71 24.63 279.2 24.64 278.69 24.71C278.61 25.41 278.63 26.12 278.77 26.81Z" id="fXYE5PNm0"></path><path d="M159.68 247.91C159.64 247.95 159.31 248.31 159.26 248.35C159.08 248.44 158.87 248.41 158.72 248.27C158.76 247.75 159.14 247.33 159.65 247.22C160.13 247.01 160.69 247.1 161.08 247.46C161.21 247.61 161.29 247.8 161.3 248C161.31 248.38 161.18 248.75 160.94 249.03C160.62 249.43 160.25 249.79 159.86 250.11C159.63 250.26 159.45 250.46 159.32 250.69C159.74 250.91 160.23 250.69 160.62 250.88C160.68 251.04 160.66 251.22 160.58 251.37C160.36 251.52 158.69 251.53 157.98 251.37C157.92 251.18 157.95 250.97 158.07 250.81C158.66 250.3 159.24 249.81 159.82 249.3C160.11 249.07 160.34 248.76 160.49 248.42C160.55 248.29 160.55 248.15 160.5 248.02C160.26 247.86 159.96 247.82 159.68 247.91Z" id="a4aErDfGHJ"></path><path d="M415.98 239.91C415.95 240.41 415.72 240.89 415.34 241.23C415.06 241.51 414.75 241.76 414.47 242.04C414.28 242.21 414.05 242.33 413.93 242.63C414.37 242.8 414.84 242.61 415.23 242.75C415.43 242.98 415.32 243.14 415.19 243.3C414.38 243.41 413.55 243.41 412.74 243.3C412.57 243.13 412.63 242.94 412.74 242.68C413.21 242.28 413.74 241.85 414.25 241.4C414.44 241.23 414.63 241.04 414.81 240.88C415.06 240.65 415.19 240.32 415.17 239.98C415.13 239.8 414.97 239.66 414.79 239.65C414.58 239.63 414.38 239.7 414.24 239.85C414.13 239.96 414.03 240.08 413.93 240.21C413.74 240.32 413.51 240.3 413.34 240.15C413.3 239.71 413.63 239.5 413.91 239.27C414.34 238.92 414.86 239.01 415.38 239.08C415.7 239.24 415.93 239.55 415.98 239.91Z" id="dREOr829Q"></path><path d="M304.65 25.44C304.32 25.26 304.09 24.82 303.48 24.61C303.14 24.56 302.8 24.57 302.47 24.65C301.78 25.02 301.33 25.73 301.3 26.52C301.23 27 301.27 27.48 301.41 27.95C301.64 28.66 302.04 29.16 302.83 29.24C302.93 29.25 303.02 29.27 303.11 29.3C303.18 29.28 303.72 29.16 303.79 29.15C304.17 28.97 304.48 28.66 304.67 28.28C304.93 28.28 305 28.39 305.03 28.55C304.5 29.98 302.37 30.2 301.4 29.09C301.09 28.71 300.88 28.26 300.8 27.78C300.65 26.99 300.73 26.17 301.05 25.43C301.34 24.66 302.05 24.13 302.86 24.08C303.7 23.97 304.52 24.4 304.92 25.15C304.88 25.34 304.84 25.41 304.65 25.44Z" id="a1kI5Tw7O"></path><path d="M286.45 29.41C286.33 28.74 286.49 27.98 286.38 27.22C286.32 27.17 286.27 27.11 286.23 27.11C285.32 27.04 284.41 27.03 283.49 27.07C283.3 27.49 283.4 27.9 283.38 28.29C283.39 28.66 283.38 29.03 283.34 29.4C283.27 29.53 283.12 29.6 282.98 29.55C282.81 29.43 282.84 29.24 282.83 29.08C282.75 26.67 282.79 24.87 282.95 24.3C283.06 24.25 283.17 24.24 283.31 24.4C283.45 25.05 283.26 25.8 283.43 26.54C284.39 26.64 285.32 26.58 286.19 26.58C286.35 26.46 286.42 26.26 286.39 26.07C286.39 25.49 286.39 24.92 286.41 24.46C286.51 24.27 286.59 24.27 286.68 24.27C286.76 24.27 286.78 24.34 286.79 24.39C286.9 25.93 286.81 27.48 286.83 29.02C286.88 29.19 286.84 29.37 286.74 29.52C286.66 29.55 286.59 29.57 286.45 29.41Z" id="b3k5ucZg3N"></path><path d="M271.87 24.57C271.09 24.78 270.25 24.53 269.43 24.73C269.31 25.33 269.31 25.94 269.43 26.54C270.12 26.7 270.81 26.54 271.4 26.65C271.56 26.73 271.55 26.82 271.56 26.93C270.89 27.22 270.16 26.93 269.45 27.13C269.31 27.77 269.31 28.43 269.45 29.07C270.28 29.27 271.11 28.98 271.85 29.16C271.97 29.23 272.04 29.37 272.03 29.51C271.95 29.56 271.86 29.6 271.77 29.62C270.84 29.65 269.9 29.65 269.03 29.62C268.88 29.53 268.8 29.37 268.81 29.2C268.81 28.74 268.81 25.11 268.81 24.65C268.82 24.55 268.85 24.45 268.88 24.35C269.88 24.18 270.91 24.16 271.92 24.31C271.91 24.36 271.87 24.55 271.87 24.57Z" id="c2YHJtaAP2"></path><path d="M408.6 298.43C408.58 298.37 408.52 298.29 408.53 298.22C408.65 297.54 408.78 296.87 408.92 296.2C409.03 295.76 409.11 295.32 409.16 294.87C408.75 294.62 408.28 294.9 407.91 294.64C407.85 294.49 407.88 294.32 407.99 294.2C408.12 294.1 408.28 294.06 408.43 294.08C409.93 294.02 410.84 294.05 411.39 294.19C411.42 294.24 411.44 294.29 411.45 294.35C411.43 294.44 411.42 294.52 411.39 294.61C410.98 294.89 410.5 294.66 410.02 294.82C409.65 295.97 409.46 297.17 409.18 298.32C409.05 298.5 408.8 298.56 408.6 298.43Z" id="adJJkb78m"></path><path d="M409.16 243.2C409.03 243.36 408.81 243.41 408.62 243.32C408.6 243.26 408.52 243.18 408.53 243.11C408.61 242.58 408.71 242.04 408.81 241.52C408.93 240.93 409.06 240.35 409.17 239.79C408.95 239.56 408.71 239.64 408.49 239.62C408.28 239.59 408.09 239.64 407.93 239.5C407.84 239.37 407.85 239.19 407.95 239.06C408.19 238.93 408.46 238.89 408.73 238.93C409.59 238.9 410.46 238.91 411.32 238.99C411.46 239.13 411.45 239.35 411.31 239.49C411.3 239.5 411.29 239.51 411.28 239.52C410.93 239.69 410.49 239.53 409.97 239.69C409.7 240.89 409.42 242.07 409.16 243.2Z" id="cnyNwQ4o7"></path><path d="M369.18 51.76C369.06 51.77 368.95 51.73 368.87 51.65C369.15 49.85 369.53 48.07 370 46.31C370.21 46.16 370.49 46.15 370.71 46.28C370.74 46.35 370.79 46.4 370.78 46.45C370.65 47.16 370.51 47.91 370.36 48.63C370.19 49.47 370.01 50.31 369.83 51.14C369.81 51.36 369.7 51.57 369.53 51.72C369.44 51.72 369.3 51.75 369.18 51.76Z" id="b1b3f2szvl"></path><path d="M260.16 29.53C259.98 28.71 260.16 27.88 260.04 26.99C259.96 26.86 259.32 25.81 259.24 25.68C258.98 25.24 258.7 24.82 258.49 24.41C258.58 24.27 258.75 24.22 258.9 24.27C259.48 24.89 259.77 25.75 260.39 26.44C260.96 25.72 261.33 24.92 261.86 24.29C262.04 24.22 262.14 24.22 262.24 24.29C262.24 24.34 262.29 24.41 262.27 24.44C261.88 25.07 261.48 25.69 261.08 26.32C260.95 26.53 260.81 26.75 260.7 26.93C260.55 27.82 260.75 28.69 260.55 29.59C260.47 29.58 260.2 29.53 260.16 29.53Z" id="a1hxeodYF3"></path><path d="M340.34 285.54C340.34 285.56 340.34 285.68 340.34 285.7C338.83 288.58 337.62 290.88 337.31 291.45C337.28 291.51 337.25 291.56 337.2 291.6C337 291.69 336.85 291.71 336.73 291.6C336.73 291.55 336.67 291.48 336.69 291.45C336.8 291.23 337.65 289.51 337.76 289.3C338.3 288.26 338.85 287.23 339.39 286.2C339.52 285.94 339.68 285.71 339.87 285.5C340.08 285.42 340.23 285.43 340.34 285.54Z" id="b1gbNY6pZl"></path><path d="M161.11 187.48C161.14 187.57 161.15 187.66 161.15 187.75C160.93 188.83 160.71 189.93 160.48 191.01C160.47 191.21 160.39 191.4 160.27 191.56C160.11 191.71 159.86 191.71 159.7 191.56C159.73 190.52 160.2 189.51 160.22 188.45C159.91 188.35 159.73 188.67 159.47 188.61C159.2 188.44 159.46 188.26 159.4 188.08C159.98 187.84 160.39 187.23 161.11 187.48Z" id="c39fAm8Nun"></path><path d="M414.11 298.47C414.08 298.41 414.01 298.33 414.02 298.26C414.08 297.9 414.16 297.55 414.23 297.19C414.27 297 414.58 295.45 414.62 295.26C414.27 295.23 414.08 295.55 413.78 295.48C413.58 295.31 413.69 295.12 413.8 294.9C414.1 294.73 414.44 294.52 414.79 294.33C415.03 294.2 415.07 294.22 415.5 294.37C415.3 295.75 415 297.11 414.6 298.44C414.45 298.52 414.27 298.53 414.11 298.47Z" id="ac1aXnrbL"></path><path d="M151.96 187.32C152 187.4 152.05 187.45 152.05 187.5C152.06 187.61 152.05 187.72 152.03 187.83C151.67 189.07 151.56 190.34 151.19 191.56C151.1 191.6 151 191.64 150.9 191.66C150.82 191.66 150.74 191.65 150.67 191.64C150.57 191.56 150.52 191.44 150.54 191.32C150.73 190.43 150.89 189.53 151.11 188.64C151.16 188.21 151.27 187.8 151.43 187.4C151.58 187.27 151.78 187.24 151.96 187.32Z" id="csa9V7YPe"></path><path d="M151.43 247.11C151.51 247.13 151.58 247.16 151.65 247.19C151.69 247.88 151.24 250.15 150.82 251.36C150.66 251.49 150.43 251.49 150.28 251.36C150.28 251.3 150.22 251.24 150.23 251.19C150.46 250.02 150.68 248.85 150.94 247.68C150.98 247.5 151.03 247.32 151.1 247.15C151.21 247.13 151.32 247.12 151.43 247.11Z" id="a2jnJ5fQlc"></path><path d="M299.31 29.52C299.28 29.48 299.23 29.43 299.23 29.38C299.21 27.03 299.2 25.15 299.2 24.68C299.2 24.6 299.22 24.52 299.25 24.44C299.35 24.26 299.44 24.3 299.52 24.3C299.69 24.46 299.65 24.66 299.66 24.86C299.74 27.39 299.7 28.94 299.54 29.52C299.43 29.55 299.35 29.55 299.31 29.52Z" id="i1a6JOBa60"></path></defs><g><g><g><use xlink:href="#facsM3fmbn" opacity="1" fill="#f2c716" fill-opacity="1"></use><g><use xlink:href="#facsM3fmbn" opacity="1" fill-opacity="0" stroke="#000000" stroke-width="1" stroke-opacity="0"></use></g></g><g><use xlink:href="#bktPwvZr5" opacity="1" fill="#f2c716" fill-opacity="1"></use><g><use xlink:href="#bktPwvZr5" opacity="1" fill-opacity="0" stroke="#000000" stroke-width="1" stroke-opacity="0"></use></g></g><g><use xlink:href="#h2NaHQ8DwL" opacity="1" fill="#f2c716" fill-opacity="1"></use><g><use xlink:href="#h2NaHQ8DwL" opacity="1" fill-opacity="0" stroke="#000000" stroke-width="1" stroke-opacity="0"></use></g></g><g><use xlink:href="#a7rrWsGNj0" opacity="1" fill="#f2c716" fill-opacity="1"></use><g><use xlink:href="#a7rrWsGNj0" opacity="1" fill-opacity="0" stroke="#000000" stroke-width="1" stroke-opacity="0"></use></g></g><g><use xlink:href="#a2UuKWdbIf" opacity="1" fill="#f2c716" fill-opacity="1"></use><g><use xlink:href="#a2UuKWdbIf" opacity="1" fill-opacity="0" stroke="#000000" stroke-width="1" stroke-opacity="0"></use></g></g><g><use xlink:href="#bcawYZ3Tf" opacity="1" fill="#f2c716" fill-opacity="1"></use><g><use xlink:href="#bcawYZ3Tf" opacity="1" fill-opacity="0" stroke="#000000" stroke-width="1" stroke-opacity="0"></use></g></g><g><use xlink:href="#a667GHA8r" opacity="1" fill="#f2c716" fill-opacity="1"></use><g><use xlink:href="#a667GHA8r" opacity="1" fill-opacity="0" stroke="#000000" stroke-width="1" stroke-opacity="0"></use></g></g><g><use xlink:href="#c4X7E9yaG" opacity="1" fill="#f2c716" fill-opacity="1"></use><g><use xlink:href="#c4X7E9yaG" opacity="1" fill-opacity="0" stroke="#000000" stroke-width="1" stroke-opacity="0"></use></g></g><g><use xlink:href="#b9w3NSOTo" opacity="1" fill="#f2c716" fill-opacity="1"></use><g><use xlink:href="#b9w3NSOTo" opacity="1" fill-opacity="0" stroke="#000000" stroke-width="1" stroke-opacity="0"></use></g></g><g><use xlink:href="#a1DusczShh" opacity="1" fill="#f2c716" fill-opacity="1"></use><g><use xlink:href="#a1DusczShh" opacity="1" fill-opacity="0" stroke="#000000" stroke-width="1" stroke-opacity="0"></use></g></g><g><use xlink:href="#k2cYLwDGJa" opacity="1" fill="#f2c716" fill-opacity="1"></use><g><use xlink:href="#k2cYLwDGJa" opacity="1" fill-opacity="0" stroke="#000000" stroke-width="1" stroke-opacity="0"></use></g></g><g><use xlink:href="#f1kFqQSktV" opacity="1" fill="#f2c716" fill-opacity="1"></use><g><use xlink:href="#f1kFqQSktV" opacity="1" fill-opacity="0" stroke="#000000" stroke-width="1" stroke-opacity="0"></use></g></g><g><use xlink:href="#a5gxQYTNyy" opacity="1" fill="#f2c716" fill-opacity="1"></use><g><use xlink:href="#a5gxQYTNyy" opacity="1" fill-opacity="0" stroke="#000000" stroke-width="1" stroke-opacity="0"></use></g></g><g><use xlink:href="#c4dys4bPxL" opacity="1" fill="#f2c716" fill-opacity="1"></use><g><use xlink:href="#c4dys4bPxL" opacity="1" fill-opacity="0" stroke="#000000" stroke-width="1" stroke-opacity="0"></use></g></g><g><use xlink:href="#aVa22IOnE" opacity="1" fill="#f2c716" fill-opacity="1"></use><g><use xlink:href="#aVa22IOnE" opacity="1" fill-opacity="0" stroke="#000000" stroke-width="1" stroke-opacity="0"></use></g></g><g><use xlink:href="#f1qN4Lbdi" opacity="1" fill="#f2c716" fill-opacity="1"></use><g><use xlink:href="#f1qN4Lbdi" opacity="1" fill-opacity="0" stroke="#000000" stroke-width="1" stroke-opacity="0"></use></g></g><g><use xlink:href="#bc8nnNxQG" opacity="1" fill="#f2c716" fill-opacity="1"></use><g><use xlink:href="#bc8nnNxQG" opacity="1" fill-opacity="0" stroke="#000000" stroke-width="1" stroke-opacity="0"></use></g></g><g><use xlink:href="#eaNMIxon3K" opacity="1" fill="#f2c716" fill-opacity="1"></use><g><use xlink:href="#eaNMIxon3K" opacity="1" fill-opacity="0" stroke="#000000" stroke-width="1" stroke-opacity="0"></use></g></g><g><use xlink:href="#b4uF5rtfk" opacity="1" fill="#f2c716" fill-opacity="1"></use><g><use xlink:href="#b4uF5rtfk" opacity="1" fill-opacity="0" stroke="#000000" stroke-width="1" stroke-opacity="0"></use></g></g><g><use xlink:href="#bUJSFSXvD" opacity="1" fill="#f2c716" fill-opacity="1"></use><g><use xlink:href="#bUJSFSXvD" opacity="1" fill-opacity="0" stroke="#000000" stroke-width="1" stroke-opacity="0"></use></g></g><g><use xlink:href="#h10yV66Mwq" opacity="1" fill="#f2c716" fill-opacity="1"></use><g><use xlink:href="#h10yV66Mwq" opacity="1" fill-opacity="0" stroke="#000000" stroke-width="1" stroke-opacity="0"></use></g></g><g><use xlink:href="#a1koUZxXXw" opacity="1" fill="#f2c716" fill-opacity="1"></use><g><use xlink:href="#a1koUZxXXw" opacity="1" fill-opacity="0" stroke="#000000" stroke-width="1" stroke-opacity="0"></use></g></g><g><use xlink:href="#aT01M4NVz" opacity="1" fill="#f2c716" fill-opacity="1"></use><g><use xlink:href="#aT01M4NVz" opacity="1" fill-opacity="0" stroke="#000000" stroke-width="1" stroke-opacity="0"></use></g></g><g><use xlink:href="#a1TP0OTRpy" opacity="1" fill="#f2c716" fill-opacity="1"></use><g><use xlink:href="#a1TP0OTRpy" opacity="1" fill-opacity="0" stroke="#000000" stroke-width="1" stroke-opacity="0"></use></g></g><g><use xlink:href="#d39nmnwG7H" opacity="1" fill="#f2c716" fill-opacity="1"></use><g><use xlink:href="#d39nmnwG7H" opacity="1" fill-opacity="0" stroke="#000000" stroke-width="1" stroke-opacity="0"></use></g></g><g><use xlink:href="#aU2aWgLYE" opacity="1" fill="#f2c716" fill-opacity="1"></use><g><use xlink:href="#aU2aWgLYE" opacity="1" fill-opacity="0" stroke="#000000" stroke-width="1" stroke-opacity="0"></use></g></g><g><use xlink:href="#b15oXwlqrA" opacity="1" fill="#f2c716" fill-opacity="1"></use><g><use xlink:href="#b15oXwlqrA" opacity="1" fill-opacity="0" stroke="#000000" stroke-width="1" stroke-opacity="0"></use></g></g><g><use xlink:href="#a2ePId9nLR" opacity="1" fill="#f2c716" fill-opacity="1"></use><g><use xlink:href="#a2ePId9nLR" opacity="1" fill-opacity="0" stroke="#000000" stroke-width="1" stroke-opacity="0"></use></g></g><g><use xlink:href="#aHeYBzw3u" opacity="1" fill="#f2c716" fill-opacity="1"></use><g><use xlink:href="#aHeYBzw3u" opacity="1" fill-opacity="0" stroke="#000000" stroke-width="1" stroke-opacity="0"></use></g></g><g><use xlink:href="#b8e0OoX0OX" opacity="1" fill="#f2c716" fill-opacity="1"></use><g><use xlink:href="#b8e0OoX0OX" opacity="1" fill-opacity="0" stroke="#000000" stroke-width="1" stroke-opacity="0"></use></g></g><g><use xlink:href="#bfru4hv6l" opacity="1" fill="#f2c716" fill-opacity="1"></use><g><use xlink:href="#bfru4hv6l" opacity="1" fill-opacity="0" stroke="#000000" stroke-width="1" stroke-opacity="0"></use></g></g><g><use xlink:href="#aJMSMaD1t" opacity="1" fill="#f2c716" fill-opacity="1"></use><g><use xlink:href="#aJMSMaD1t" opacity="1" fill-opacity="0" stroke="#000000" stroke-width="1" stroke-opacity="0"></use></g></g><g><use xlink:href="#gueEYwAVB" opacity="1" fill="#f2c716" fill-opacity="1"></use><g><use xlink:href="#gueEYwAVB" opacity="1" fill-opacity="0" stroke="#000000" stroke-width="1" stroke-opacity="0"></use></g></g><g><use xlink:href="#aw5w7fiZy" opacity="1" fill="#f2c716" fill-opacity="1"></use><g><use xlink:href="#aw5w7fiZy" opacity="1" fill-opacity="0" stroke="#000000" stroke-width="1" stroke-opacity="0"></use></g></g><g><use xlink:href="#frAqsi6hb" opacity="1" fill="#f2c716" fill-opacity="1"></use><g><use xlink:href="#frAqsi6hb" opacity="1" fill-opacity="0" stroke="#000000" stroke-width="1" stroke-opacity="0"></use></g></g><g><use xlink:href="#asDd0Fhcd" opacity="1" fill="#f2c716" fill-opacity="1"></use><g><use xlink:href="#asDd0Fhcd" opacity="1" fill-opacity="0" stroke="#000000" stroke-width="1" stroke-opacity="0"></use></g></g><g><use xlink:href="#c3Y1DPgfeI" opacity="1" fill="#f2c716" fill-opacity="1"></use><g><use xlink:href="#c3Y1DPgfeI" opacity="1" fill-opacity="0" stroke="#000000" stroke-width="1" stroke-opacity="0"></use></g></g><g><use xlink:href="#d3BLRax1YU" opacity="1" fill="#f2c716" fill-opacity="1"></use><g><use xlink:href="#d3BLRax1YU" opacity="1" fill-opacity="0" stroke="#000000" stroke-width="1" stroke-opacity="0"></use></g></g><g><use xlink:href="#aAIKG3he6" opacity="1" fill="#f2c716" fill-opacity="1"></use><g><use xlink:href="#aAIKG3he6" opacity="1" fill-opacity="0" stroke="#000000" stroke-width="1" stroke-opacity="0"></use></g></g><g><use xlink:href="#b68TZxCYv" opacity="1" fill="#f2c716" fill-opacity="1"></use><g><use xlink:href="#b68TZxCYv" opacity="1" fill-opacity="0" stroke="#000000" stroke-width="1" stroke-opacity="0"></use></g></g><g><use xlink:href="#fXYE5PNm0" opacity="1" fill="#f2c716" fill-opacity="1"></use><g><use xlink:href="#fXYE5PNm0" opacity="1" fill-opacity="0" stroke="#000000" stroke-width="1" stroke-opacity="0"></use></g></g><g><use xlink:href="#a4aErDfGHJ" opacity="1" fill="#f2c716" fill-opacity="1"></use><g><use xlink:href="#a4aErDfGHJ" opacity="1" fill-opacity="0" stroke="#000000" stroke-width="1" stroke-opacity="0"></use></g></g><g><use xlink:href="#dREOr829Q" opacity="1" fill="#f2c716" fill-opacity="1"></use><g><use xlink:href="#dREOr829Q" opacity="1" fill-opacity="0" stroke="#000000" stroke-width="1" stroke-opacity="0"></use></g></g><g><use xlink:href="#a1kI5Tw7O" opacity="1" fill="#f2c716" fill-opacity="1"></use><g><use xlink:href="#a1kI5Tw7O" opacity="1" fill-opacity="0" stroke="#000000" stroke-width="1" stroke-opacity="0"></use></g></g><g><use xlink:href="#b3k5ucZg3N" opacity="1" fill="#f2c716" fill-opacity="1"></use><g><use xlink:href="#b3k5ucZg3N" opacity="1" fill-opacity="0" stroke="#000000" stroke-width="1" stroke-opacity="0"></use></g></g><g><use xlink:href="#c2YHJtaAP2" opacity="1" fill="#f2c716" fill-opacity="1"></use><g><use xlink:href="#c2YHJtaAP2" opacity="1" fill-opacity="0" stroke="#000000" stroke-width="1" stroke-opacity="0"></use></g></g><g><use xlink:href="#adJJkb78m" opacity="1" fill="#f2c716" fill-opacity="1"></use><g><use xlink:href="#adJJkb78m" opacity="1" fill-opacity="0" stroke="#000000" stroke-width="1" stroke-opacity="0"></use></g></g><g><use xlink:href="#cnyNwQ4o7" opacity="1" fill="#f2c716" fill-opacity="1"></use><g><use xlink:href="#cnyNwQ4o7" opacity="1" fill-opacity="0" stroke="#000000" stroke-width="1" stroke-opacity="0"></use></g></g><g><use xlink:href="#b1b3f2szvl" opacity="1" fill="#f2c716" fill-opacity="1"></use><g><use xlink:href="#b1b3f2szvl" opacity="1" fill-opacity="0" stroke="#000000" stroke-width="1" stroke-opacity="0"></use></g></g><g><use xlink:href="#a1hxeodYF3" opacity="1" fill="#f2c716" fill-opacity="1"></use><g><use xlink:href="#a1hxeodYF3" opacity="1" fill-opacity="0" stroke="#000000" stroke-width="1" stroke-opacity="0"></use></g></g><g><use xlink:href="#b1gbNY6pZl" opacity="1" fill="#f2c716" fill-opacity="1"></use><g><use xlink:href="#b1gbNY6pZl" opacity="1" fill-opacity="0" stroke="#000000" stroke-width="1" stroke-opacity="0"></use></g></g><g><use xlink:href="#c39fAm8Nun" opacity="1" fill="#f2c716" fill-opacity="1"></use><g><use xlink:href="#c39fAm8Nun" opacity="1" fill-opacity="0" stroke="#000000" stroke-width="1" stroke-opacity="0"></use></g></g><g><use xlink:href="#ac1aXnrbL" opacity="1" fill="#f2c716" fill-opacity="1"></use><g><use xlink:href="#ac1aXnrbL" opacity="1" fill-opacity="0" stroke="#000000" stroke-width="1" stroke-opacity="0"></use></g></g><g><use xlink:href="#csa9V7YPe" opacity="1" fill="#f2c716" fill-opacity="1"></use><g><use xlink:href="#csa9V7YPe" opacity="1" fill-opacity="0" stroke="#000000" stroke-width="1" stroke-opacity="0"></use></g></g><g><use xlink:href="#a2jnJ5fQlc" opacity="1" fill="#f2c716" fill-opacity="1"></use><g><use xlink:href="#a2jnJ5fQlc" opacity="1" fill-opacity="0" stroke="#000000" stroke-width="1" stroke-opacity="0"></use></g></g><g><use xlink:href="#i1a6JOBa60" opacity="1" fill="#f2c716" fill-opacity="1"></use><g><use xlink:href="#i1a6JOBa60" opacity="1" fill-opacity="0" stroke="#000000" stroke-width="1" stroke-opacity="0"></use></g></g></g></g></svg>