<?xml version="1.0" standalone="no"?>
<!DOCTYPE svg PUBLIC "-//W3C//DTD SVG 20010904//EN"
 "http://www.w3.org/TR/2001/REC-SVG-20010904/DTD/svg10.dtd">
<svg version="1.0" xmlns="http://www.w3.org/2000/svg"
 width="1080.000000pt" height="1080.000000pt" viewBox="0 0 1080.000000 1080.000000"
 preserveAspectRatio="xMidYMid meet">

<g transform="translate(0.000000,1080.000000) scale(0.100000,-0.100000)"
fill="#000000" stroke="none">
<path d="M5155 7610 c-283 -29 -552 -119 -757 -252 -301 -196 -539 -473 -1178
-1368 -426 -596 -646 -879 -774 -997 -77 -71 -206 -146 -299 -174 -55 -17 -87
-20 -160 -17 -80 3 -101 9 -162 38 -180 89 -295 297 -295 534 0 157 39 283
128 413 99 146 291 261 550 329 53 14 104 32 113 40 14 12 6 75 -78 620 -51
334 -97 612 -103 619 -9 11 -23 10 -73 -1 -447 -102 -732 -257 -1022 -555
-157 -162 -237 -272 -320 -444 -144 -295 -205 -594 -205 -1005 -1 -624 137
-1046 458 -1405 305 -341 637 -503 1074 -522 239 -10 463 27 673 112 227 92
462 258 731 517 74 71 140 128 147 125 6 -2 50 -58 97 -124 121 -172 230 -301
372 -439 319 -310 585 -442 1028 -510 160 -25 511 -25 668 -1 402 63 715 221
1003 507 187 186 370 421 819 1050 492 691 737 993 896 1106 86 61 199 111
283 126 192 33 385 -70 474 -252 50 -103 67 -176 67 -294 0 -121 -19 -204 -71
-311 -115 -239 -272 -347 -678 -464 -14 -4 -29 -15 -35 -23 -14 -23 158 -1216
178 -1236 27 -28 406 87 601 183 421 205 754 585 889 1014 78 247 101 433 101
796 -1 311 -13 437 -60 645 -84 371 -210 607 -459 855 -200 200 -350 297 -569
370 -262 87 -553 104 -812 46 -329 -72 -613 -246 -973 -595 -83 -80 -154 -146
-159 -146 -5 0 -24 24 -42 53 -81 125 -214 291 -326 406 -359 370 -697 547
-1180 617 -125 18 -441 26 -560 14z m712 -1235 c44 -8 112 -26 152 -40 107
-36 294 -137 396 -213 104 -78 291 -254 301 -284 4 -15 -23 -63 -109 -192
-341 -508 -565 -818 -681 -943 -134 -144 -332 -266 -511 -315 -119 -32 -344
-31 -470 1 -225 58 -432 174 -640 359 -55 48 -113 107 -128 129 -25 36 -27 44
-16 65 6 13 93 142 192 288 386 567 617 865 748 966 108 83 253 151 376 178
91 19 290 20 390 1z"/>
</g>
</svg>
