<?xml version="1.0" encoding="UTF-8" standalone="no"?>
<!DOCTYPE svg PUBLIC "-//W3C//DTD SVG 1.1//EN" "http://www.w3.org/Graphics/SVG/1.1/DTD/svg11.dtd">
<svg version="1.1" xmlns="http://www.w3.org/2000/svg" xmlns:xlink="http://www.w3.org/1999/xlink" preserveAspectRatio="xMidYMid meet" viewBox="0 0 640 640" width="640" height="640"><defs><path d="M28.8 37C27.3 38.2 26.47 38.87 26.3 39C23.5 41.2 17.1 41.7 13.8 39.9C12.7 39.3 10.9 36.8 9.8 34.3C6.2 26.2 9.3 17.5 16.8 14.3C19.7 13.1 20.4 13.1 21.1 14.2C22.9 16.9 22 19.5 18.7 21C11.3 24.4 13.5 36.6 21.1 34.7C22.8 34.3 25.3 31.4 28.9 25.8C35.9 15 38.6 12.2 42.6 11.4C46.4 10.7 51.6 13.1 52.5 16C52.9 17.2 53.5 17.9 53.8 17.8C59.8 14.5 62.3 14 65.7 15.1C70.2 16.5 73 21.1 73 27C73 33.9 69.6 38.7 63.4 40.4C61.6 41 61.2 40.6 60.8 38C60.4 35.4 60.8 34.7 63.2 33.4C66.7 31.6 68.3 27.9 67 24.6C65.9 21.7 62.8 19.8 60.6 20.6C59.7 21 56.1 25.7 52.5 31.1C43.5 44.7 38.8 47 32.3 40.5C31.83 40.03 30.67 38.87 28.8 37ZM50.6 22.5C51.5 20.2 48.1 17 44.9 17C41.7 17 38.6 20.6 34 29.4C33.83 29.71 33 31.28 31.5 34.1C32.94 35.3 33.74 35.97 33.9 36.1C36.6 38.3 37.4 38.4 40 37C41.9 36 49.4 25.7 50.6 22.5Z" id="ahPa4gb6p"></path><path d="M85.4 30.3C86.2 29.5 88 31 88 32.5C88 35.8 96.6 37.3 99.4 34.4C102.6 31.3 100.2 28.1 93.5 26.6C86.3 24.9 83.8 20.2 88 16C91.9 12.1 102 14.3 102 19.1C102 21.6 100.3 21.6 99.5 19C98.1 14.6 88.5 15.4 88.5 20C88.5 22.1 89.4 22.7 94.9 24.6C101.6 26.9 103 28.1 103 31.8C103 36.9 95.8 39.6 89.2 37C87.1 36.1 84.4 31.3 85.4 30.3Z" id="eg8z0O4IM"></path><path d="M109.2 14.2C109.8 14.4 113.1 18.7 116.4 23.8C119.8 28.8 122.8 32.9 123.3 32.9C123.7 33 124 28.7 124 23.5C124 17.8 124.4 14 125 14C126.3 14 126.4 36.7 125.1 37.4C124 38.1 121.1 34.7 115 25.7C114.7 25.26 113.2 23.02 110.5 19C110.32 24.22 110.22 27.12 110.2 27.7C109.7 41.6 108 40.3 108 26.1C108 17.1 108.3 13.9 109.2 14.2Z" id="l288EYKeG"></path><path d="M133.5 21.3C130.9 17.7 129.1 14.5 129.4 14.2C130.3 13.4 132.7 15.9 135.7 20.6C137.2 23 138.8 25 139.1 25C139.4 25 141.4 22.5 143.4 19.5C145.4 16.5 147.5 14 148 14C149.6 14 149.3 14.6 144.5 21.8C140.7 27.4 140 29.3 140 33.2C140 35.9 139.6 38 139 38C138.5 38 138 35.7 138 32.9C138 28.4 137.4 26.9 133.5 21.3Z" id="b72foZFL8"></path><path d="M152.2 24.9C152.22 24.21 152.32 20.74 152.5 14.5C156.28 14.56 158.38 14.6 158.8 14.6C164.2 14.7 165.5 15.1 167.7 17.3C171.5 21 172 28.3 168.8 33C166.3 36.7 163.8 37.7 157.2 37.9C154.5 38 152.8 37.5 152.4 36.7C152.2 36 152.1 30.7 152.2 24.9ZM168.2 26C168.2 19.4 166.1 17 159.6 16.3C159.29 16.26 157.76 16.06 155 15.7L155 26L155 36.3C157.82 35.88 159.39 35.65 159.7 35.6C162.3 35.3 165.3 34.1 166.4 33.1C167.7 31.7 168.2 29.8 168.2 26Z" id="h3pqG85dT0"></path><path d="M175.8 20.8C175.83 20.35 175.96 18.08 176.2 14C180.58 14 183.01 14 183.5 14C187.6 14 191.2 14.4 191.5 15C192.2 16.1 191.6 16.2 183.7 16C183.31 16 181.38 15.96 177.9 15.9C178.08 18.48 178.18 19.92 178.2 20.2C178.5 24.8 178.3 24.7 186.3 24.9C193.3 25.1 191.1 27 183.9 27C183.51 27 181.54 27 178 27L178 31.5L178 36C182.26 36 184.63 36 185.1 36C189.5 36 191.9 36.4 191.5 37C191.2 37.6 187.6 38 183.5 38C183.01 38 180.54 38 176.1 38L175.8 32.8C175.67 27.27 175.67 23.27 175.8 20.8Z" id="bwxfVERmz"></path><path d="M196 25.3C196 24.55 196 20.78 196 14C199.48 14 201.41 14 201.8 14C208.7 14 212.1 15.6 213.4 19.3C214.2 21.6 214 22.4 212.2 24.2C210.5 25.9 210.3 26.6 211.4 27.4C213.2 28.9 214.4 38.3 212.7 37.7C212.1 37.5 211.2 35.5 210.9 33.2C210.6 30.9 210 28.7 209.6 28.3C209.2 27.9 206.6 27.6 203.7 27.5C203.35 27.5 201.62 27.5 198.5 27.5C198.2 30.68 198.03 32.45 198 32.8C197.7 35.8 197.2 37.8 196.8 37.4C196.3 37 196 31.6 196 25.3ZM205.9 16.6C199.3 15.3 198 16.1 198 21C198 21.28 198 22.64 198 25.1L204.3 24.8L210.5 24.5L210.5 21C210.37 18.67 208.83 17.2 205.9 16.6Z" id="g18QmgONJS"></path><path d="M219.2 24.9C219.22 24.21 219.32 20.74 219.5 14.5C223.58 14.56 225.85 14.59 226.3 14.6C234.1 14.7 236.3 16.1 236.3 21.1C236.3 25.6 233.1 28 226.9 28C226.57 28 224.94 28 222 28C222 30.64 222 32.11 222 32.4C222 36.8 220.5 39.4 219.5 36.7C219.2 36 219.1 30.7 219.2 24.9ZM234 21C234 17.5 231.4 16 225.4 16C225.17 16 224.04 16 222 16L222 21L222 26C224.04 26 225.17 26 225.4 26C227.3 26 230 25.6 231.4 25C233.4 24.3 234 23.4 234 21Z" id="b4roih7wAC"></path><path d="M242.1 14C242.6 14 243 16.3 243 19C243 19.33 243 21 243 24L249.4 24L255.9 24C256.08 21.18 256.18 19.61 256.2 19.3C256.4 16.6 257 14.6 257.5 14.8C258.1 14.9 258.5 19.5 258.5 26C258.5 32.7 258.1 37 257.5 37C257 37 256.4 34.8 256.2 32C256.18 31.67 256.08 30 255.9 27L249.4 27L243 27C243 29.94 243 31.57 243 31.9C243 36.3 242.1 38.7 240.9 37.6C240 36.7 241.2 14 242.1 14Z" id="gKbFOxzUs"></path><path d="M265 20.3C267.7 14.3 274.3 12.3 280 15.7C281.6 16.6 283.3 18.4 283.9 19.7C285.3 22.9 285.3 29.3 283.8 32.5C281.6 37.3 274.2 39.4 269.2 36.7C264 33.8 262.1 26.7 265 20.3ZM280.1 18.9C272.1 10.9 262 21.4 267.5 32C269.2 35.2 270.2 35.8 274.7 35.9C277 36 278.5 35.2 280.4 32.9C284.1 28.5 284 22.8 280.1 18.9Z" id="a4G0ezsE0o"></path><path d="M291.3 14.2C291.9 14.5 295.4 18.9 299 24C299.43 24.62 301.6 27.72 305.5 33.3C305.68 27.54 305.78 24.34 305.8 23.7C306.2 9.6 308 11.6 308 26.1C308 35.3 307.7 38.1 306.8 37.8C306.1 37.6 302.6 33.1 299 27.9C298.57 27.27 296.4 24.14 292.5 18.5C292.32 24.38 292.22 27.65 292.2 28.3C291.8 42.4 290 40.5 290 25.9C290 16.7 290.3 13.9 291.3 14.2Z" id="ezMVoLIcV"></path><path d="M314.9 14.5C315.5 14.2 316 18.7 316.2 25.6C316.5 36.5 316.2 38.8 314.6 37.3C313.6 36.3 313.9 15.2 314.9 14.5Z" id="a1i5TTcX0"></path><path d="M321 25.4C321 21.5 321.5 20.3 324.4 17.4C329 12.8 333.8 12.7 338.1 17C339.8 18.6 340.8 20.4 340.5 21C340.1 21.6 338.7 20.8 337 19C329.4 10.9 319.1 21.6 324.5 32C327.2 37.3 334.8 37.2 337.8 32C339.7 28.7 341 28.1 341 30.6C341 31.4 339.7 33.5 338.1 35.1C335.8 37.3 334.2 38 331.3 38C329.2 38 326.7 37.5 325.7 36.9C323 35.3 321 30.5 321 25.4Z" id="bCeFpsC3a"></path><path d="M345 30C345.6 30 346 30.6 346 31.3C346 33.7 349.5 36 353.2 36C357.3 36 359.3 34.1 358.8 30.8C358.6 29 357.3 28.2 352.5 26.8C343.8 24.1 341.9 21 346.5 16.5C349.8 13.1 355.2 13.1 358.5 16.5C361 18.9 361.7 21 360.1 21C359.6 21 358.5 19.9 357.6 18.5C355.8 15.7 350.4 15 348.2 17.2C346.4 19 346.7 22.8 348.8 23.4C349.7 23.7 352.4 24.4 354.8 25C360 26.3 362.5 29.6 361.1 33.3C359.2 38.3 351.4 39.7 346.6 35.9C344.1 33.9 343 30 345 30Z" id="dEXHdv9Xk"></path></defs><g><g><g><use xlink:href="#ahPa4gb6p" opacity="1" fill="#d4af37" fill-opacity="1"></use><g><use xlink:href="#ahPa4gb6p" opacity="1" fill-opacity="0" stroke="#000000" stroke-width="1" stroke-opacity="0"></use></g></g><g><use xlink:href="#eg8z0O4IM" opacity="1" fill="#d4af37" fill-opacity="1"></use><g><use xlink:href="#eg8z0O4IM" opacity="1" fill-opacity="0" stroke="#000000" stroke-width="1" stroke-opacity="0"></use></g></g><g><use xlink:href="#l288EYKeG" opacity="1" fill="#d4af37" fill-opacity="1"></use><g><use xlink:href="#l288EYKeG" opacity="1" fill-opacity="0" stroke="#000000" stroke-width="1" stroke-opacity="0"></use></g></g><g><use xlink:href="#b72foZFL8" opacity="1" fill="#d4af37" fill-opacity="1"></use><g><use xlink:href="#b72foZFL8" opacity="1" fill-opacity="0" stroke="#000000" stroke-width="1" stroke-opacity="0"></use></g></g><g><use xlink:href="#h3pqG85dT0" opacity="1" fill="#d4af37" fill-opacity="1"></use><g><use xlink:href="#h3pqG85dT0" opacity="1" fill-opacity="0" stroke="#000000" stroke-width="1" stroke-opacity="0"></use></g></g><g><use xlink:href="#bwxfVERmz" opacity="1" fill="#d4af37" fill-opacity="1"></use><g><use xlink:href="#bwxfVERmz" opacity="1" fill-opacity="0" stroke="#000000" stroke-width="1" stroke-opacity="0"></use></g></g><g><use xlink:href="#g18QmgONJS" opacity="1" fill="#d4af37" fill-opacity="1"></use><g><use xlink:href="#g18QmgONJS" opacity="1" fill-opacity="0" stroke="#000000" stroke-width="1" stroke-opacity="0"></use></g></g><g><use xlink:href="#b4roih7wAC" opacity="1" fill="#d4af37" fill-opacity="1"></use><g><use xlink:href="#b4roih7wAC" opacity="1" fill-opacity="0" stroke="#000000" stroke-width="1" stroke-opacity="0"></use></g></g><g><use xlink:href="#gKbFOxzUs" opacity="1" fill="#d4af37" fill-opacity="1"></use><g><use xlink:href="#gKbFOxzUs" opacity="1" fill-opacity="0" stroke="#000000" stroke-width="1" stroke-opacity="0"></use></g></g><g><use xlink:href="#a4G0ezsE0o" opacity="1" fill="#d4af37" fill-opacity="1"></use><g><use xlink:href="#a4G0ezsE0o" opacity="1" fill-opacity="0" stroke="#000000" stroke-width="1" stroke-opacity="0"></use></g></g><g><use xlink:href="#ezMVoLIcV" opacity="1" fill="#d4af37" fill-opacity="1"></use><g><use xlink:href="#ezMVoLIcV" opacity="1" fill-opacity="0" stroke="#000000" stroke-width="1" stroke-opacity="0"></use></g></g><g><use xlink:href="#a1i5TTcX0" opacity="1" fill="#d4af37" fill-opacity="1"></use><g><use xlink:href="#a1i5TTcX0" opacity="1" fill-opacity="0" stroke="#000000" stroke-width="1" stroke-opacity="0"></use></g></g><g><use xlink:href="#bCeFpsC3a" opacity="1" fill="#d4af37" fill-opacity="1"></use><g><use xlink:href="#bCeFpsC3a" opacity="1" fill-opacity="0" stroke="#000000" stroke-width="1" stroke-opacity="0"></use></g></g><g><use xlink:href="#dEXHdv9Xk" opacity="1" fill="#d4af37" fill-opacity="1"></use><g><use xlink:href="#dEXHdv9Xk" opacity="1" fill-opacity="0" stroke="#000000" stroke-width="1" stroke-opacity="0"></use></g></g></g></g></svg>